<svg width="100" height="94" viewBox="0 0 100 94" fill="none" xmlns="http://www.w3.org/2000/svg">
<g clip-path="url(#clip0_386_3117)">
<path d="M99.4081 38.4102H7.3418V86.0215H99.4081V38.4102Z" stroke="#FF0000" stroke-width="2" stroke-linejoin="round"/>
<path d="M53.4042 73.5527C59.6497 73.5527 64.7126 68.4761 64.7126 62.2139C64.7126 55.9516 59.6497 50.875 53.4042 50.875C47.1587 50.875 42.0957 55.9516 42.0957 62.2139C42.0957 68.4761 47.1587 73.5527 53.4042 73.5527Z" stroke="#FF0000" stroke-width="2" stroke-linejoin="round"/>
<path d="M92.6586 92.7871H0.592285V45.1758" stroke="#FF0000" stroke-width="2" stroke-linejoin="round"/>
<path d="M53.4043 29.444V0.710938" stroke="#FF0000" stroke-width="2" stroke-linejoin="round"/>
<path d="M43.9907 9.97354L53.4046 0.59375L62.7592 9.97354" stroke="#FF0000" stroke-width="2" stroke-linejoin="round"/>
<path d="M27.1167 62.2148H29.0705" stroke="#FF0000" stroke-width="2" stroke-linejoin="round"/>
<path d="M77.6792 62.2148H79.6922" stroke="#FF0000" stroke-width="2" stroke-linejoin="round"/>
<path d="M92.6583 73.3743V50.8747C88.7033 50.8747 85.4943 47.657 85.4943 43.6914H21.3735C21.3735 47.657 18.1645 50.8747 14.2095 50.8747V73.3743C18.1645 73.3743 21.3735 76.5919 21.3735 80.5575H85.4943C85.4943 76.5919 88.7033 73.3743 92.6583 73.3743Z" stroke="#FF0000" stroke-width="2" stroke-linejoin="round"/>
</g>
<defs>
<clipPath id="clip0_386_3117">
<rect width="100" height="93.3824" fill="white"/>
</clipPath>
</defs>
</svg>
