<svg width="100" height="101" viewBox="0 0 100 101" fill="none" xmlns="http://www.w3.org/2000/svg">
<path d="M83.4999 73.94C84.2999 77.0102 84.8499 80.3321 84.8499 83.6036V88.5361H13.3999V83.6036C13.3999 68.9069 22.1999 56.1731 34.8499 50.6367" stroke="#FF0000" stroke-width="2" stroke-miterlimit="10" stroke-linejoin="round"/>
<path d="M62.9497 50.4844C65.5997 51.5917 68.1497 53.1519 70.4997 54.9135" stroke="#FF0000" stroke-width="2" stroke-miterlimit="10" stroke-linejoin="round"/>
<path d="M35.8001 51.3396C39.4501 54.2085 44.0501 55.97 49.0501 55.97C54.0501 55.97 58.6501 54.2085 62.3001 51.3396C67.2001 47.4138 70.3501 41.374 70.4501 34.5793C70.5501 22.6508 60.9501 12.8866 49.2501 12.7859C37.3001 12.6853 27.6001 22.3489 27.6001 34.378C27.6501 41.2734 30.8001 47.3131 35.8001 51.3396Z" stroke="#FF0000" stroke-width="2" stroke-miterlimit="10" stroke-linejoin="round"/>
<path d="M77.0497 75.6003C83.3181 75.6003 88.3997 70.4851 88.3997 64.1752C88.3997 57.8652 83.3181 52.75 77.0497 52.75C70.7813 52.75 65.6997 57.8652 65.6997 64.1752C65.6997 70.4851 70.7813 75.6003 77.0497 75.6003Z" stroke="#FF0000" stroke-width="2" stroke-miterlimit="10" stroke-linejoin="round"/>
<path d="M70.3999 64.577L74.3999 68.6035L83.5999 59.6445" stroke="#FF0000" stroke-width="2" stroke-miterlimit="10" stroke-linejoin="round"/>
</svg>
