<svg width="119" height="58" viewBox="0 0 119 58" fill="none" xmlns="http://www.w3.org/2000/svg">
<g clip-path="url(#clip0_386_3175)">
<path d="M2.07093 48.3633V51.9762H5.87809V48.3633H7.94902V57.783H5.87809V53.7198H2.07093V57.783H0V48.3633H2.07093Z" fill="white"/>
<path d="M20.1394 48.3633V50.1069H15.5949V52.2851H19.5328V53.8926H15.5949V57.783H13.5239V48.3633H20.1394Z" fill="white"/>
<path d="M35.4252 48.3633L37.6269 54.8403H37.6531L39.7345 48.3633H42.6474V57.783H40.7124V51.107H40.6862L38.38 57.783H36.7849L34.4787 51.1751H34.4525V57.783H32.5176V48.3633H35.4305H35.4252Z" fill="white"/>
<path d="M52.9133 48.3633L56.4328 57.783H54.2834L53.5722 55.6833H50.0527L49.3153 57.783H47.2339L50.79 48.3633H52.9133ZM53.0335 54.1439L51.8464 50.6881H51.8203L50.5965 54.1439H53.0335Z" fill="white"/>
<path d="M66.076 48.3633C66.4996 48.3633 66.8761 48.4313 67.2161 48.5675C67.556 48.7036 67.8436 48.8921 68.0842 49.1277C68.3247 49.3634 68.5078 49.6409 68.6385 49.955C68.764 50.2692 68.832 50.6043 68.832 50.9656C68.832 51.5206 68.717 51.9971 68.4816 52.4055C68.2463 52.8087 67.8698 53.1176 67.3416 53.3271V53.3533C67.5978 53.4213 67.807 53.5313 67.9744 53.6779C68.1417 53.8245 68.2777 53.9921 68.3823 54.191C68.4869 54.39 68.5653 54.6047 68.6124 54.8455C68.6594 55.0812 68.696 55.322 68.7117 55.5576C68.7222 55.7095 68.7274 55.8823 68.7379 56.0865C68.7483 56.2907 68.764 56.4949 68.785 56.7043C68.8059 56.9138 68.8425 57.118 68.8895 57.3065C68.9366 57.495 69.0098 57.6573 69.1092 57.7882H67.0383C66.9232 57.4898 66.8552 57.1337 66.8291 56.7201C66.8029 56.3064 66.7611 55.9085 66.7088 55.5315C66.6408 55.0393 66.4891 54.678 66.259 54.4476C66.0289 54.2172 65.6576 54.102 65.1399 54.102H63.069V57.783H60.998V48.3633H66.0708H66.076ZM65.3386 52.6254C65.8145 52.6254 66.1701 52.5207 66.4055 52.3113C66.6408 52.1018 66.7611 51.7563 66.7611 51.2798C66.7611 50.8033 66.6408 50.4891 66.4055 50.2849C66.1701 50.0807 65.8145 49.976 65.3386 49.976H63.0742V52.6307H65.3386V52.6254Z" fill="white"/>
<path d="M76.3419 48.3633V52.2694L80.0183 48.3633H82.6018L78.9254 52.0861L82.9574 57.7882H80.3635L77.529 53.5522L76.3419 54.7513V57.7882H74.271V48.3685H76.3419V48.3633Z" fill="white"/>
<path d="M94.583 48.3633V50.1069H89.6149V52.128H94.1751V53.7355H89.6149V56.0446H94.6876V57.7882H87.5439V48.3685H94.583V48.3633Z" fill="white"/>
<path d="M99.1011 50.1069V48.3633H106.81V50.1069H103.991V57.7882H101.92V50.1069H99.1011Z" fill="white"/>
<path d="M113.232 55.4646C113.347 55.6845 113.499 55.8625 113.687 55.9986C113.875 56.1348 114.1 56.2343 114.351 56.3023C114.607 56.3704 114.869 56.4018 115.141 56.4018C115.324 56.4018 115.522 56.3861 115.732 56.3547C115.941 56.3233 116.14 56.2657 116.323 56.1767C116.506 56.0877 116.663 55.9672 116.783 55.8154C116.908 55.6635 116.966 55.4646 116.966 55.2289C116.966 54.9724 116.882 54.7682 116.72 54.6111C116.558 54.454 116.344 54.3231 116.082 54.2131C115.821 54.1032 115.517 54.0142 115.188 53.9356C114.858 53.8571 114.513 53.7681 114.173 53.6738C113.823 53.5848 113.478 53.4801 113.143 53.3492C112.808 53.2235 112.51 53.056 112.249 52.857C111.987 52.6528 111.773 52.4015 111.611 52.0978C111.449 51.7941 111.365 51.4276 111.365 50.9982C111.365 50.5165 111.47 50.0924 111.673 49.7363C111.877 49.3802 112.149 49.0818 112.484 48.8462C112.819 48.6105 113.195 48.4325 113.619 48.3173C114.043 48.2021 114.461 48.1445 114.884 48.1445C115.376 48.1445 115.847 48.2021 116.302 48.3121C116.751 48.422 117.154 48.6001 117.51 48.8462C117.86 49.0923 118.143 49.4064 118.346 49.7887C118.55 50.1709 118.655 50.6369 118.655 51.1815H116.652C116.636 50.8987 116.574 50.6683 116.474 50.4798C116.375 50.2966 116.239 50.15 116.072 50.0452C115.904 49.9405 115.716 49.8672 115.496 49.8201C115.282 49.7782 115.047 49.752 114.79 49.752C114.623 49.752 114.456 49.7677 114.288 49.8044C114.121 49.841 113.969 49.9039 113.833 49.9876C113.697 50.0714 113.588 50.1866 113.499 50.3175C113.41 50.4484 113.368 50.616 113.368 50.8202C113.368 51.0034 113.404 51.1553 113.472 51.2705C113.54 51.3857 113.682 51.4904 113.886 51.5846C114.09 51.6841 114.377 51.7784 114.743 51.8726C115.109 51.9721 115.585 52.0925 116.171 52.2444C116.349 52.281 116.589 52.3439 116.903 52.4381C117.217 52.5324 117.525 52.679 117.834 52.8779C118.143 53.0822 118.409 53.3492 118.629 53.6895C118.854 54.0299 118.964 54.4592 118.964 54.9881C118.964 55.4174 118.88 55.8206 118.713 56.1871C118.545 56.5589 118.299 56.8731 117.97 57.1453C117.64 57.4124 117.233 57.6218 116.746 57.7737C116.26 57.9255 115.695 57.9988 115.052 57.9988C114.534 57.9988 114.032 57.936 113.54 57.8051C113.054 57.6794 112.62 57.4752 112.249 57.2029C111.877 56.9307 111.579 56.5851 111.36 56.161C111.14 55.7368 111.035 55.2394 111.041 54.6582H113.044C113.044 54.9724 113.101 55.2447 113.216 55.4646H113.232Z" fill="white"/>
<path d="M98.7299 20.3003L78.4756 0.0261804V11.3309L98.7299 31.6049L104.373 25.95H104.383L111.009 19.3106V39.4329H119V0L98.7299 20.3003Z" fill="#CD0511"/>
<path d="M8.6862 0.164062V15.223H24.2914V0.164062H32.7686V39.4084H24.2914V22.4802H8.6862V39.4084H0.208984V0.164062H8.6862Z" fill="white"/>
<path d="M66.254 0.164062V7.42126H47.6261V16.4901H63.77V23.1976H47.6261V39.4084H39.1489V0.164062H66.2593H66.254Z" fill="white"/>
<path d="M80.6876 8.02807L72.6968 0.0273438V39.434H80.6876V19.3328L98.7403 37.4077V26.0978L80.6876 8.02807Z" fill="white"/>
</g>
<defs>
<clipPath id="clip0_386_3175">
<rect width="119" height="58" fill="white"/>
</clipPath>
</defs>
</svg>
